<svg xmlns="http://www.w3.org/2000/svg" viewBox="0 0 320 90" fill="none">
  <rect width="320" height="90" rx="16" fill="transparent"/>
  <!-- Modern BITS glyph -->
  <path d="M22 24h32c8.8 0 16 7.2 16 16 0 4.8-2.1 9.1-5.5 12 4.6 2.8 7.5 7.9 7.5 13.5 0 9.1-7.4 16.5-16.5 16.5H22V24zm16 14v10h14c2.2 0 4-1.8 4-4s-1.8-4-4-4H38zm0 22v12h16c2.5 0 4.5-2 4.5-4.5s-2-4.5-4.5-4.5H38z" fill="#00D26A"/>
  <!-- BITS Typography -->
  <text x="82" y="52" fill="#FFFFFF" font-family="system-ui, -apple-system, BlinkMacSystemFont, 'Segoe UI', Roboto, sans-serif" font-size="32" font-weight="900" letter-spacing="1.5">BITS</text>
  <!-- AMERICAS Typography -->
  <text x="83" y="74" fill="#00D26A" font-family="system-ui, -apple-system, BlinkMacSystemFont, 'Segoe UI', Roboto, sans-serif" font-size="14" font-weight="700" letter-spacing="5">AMERICAS</text>
</svg>
