<svg xmlns="http://www.w3.org/2000/svg" width="209" height="96" viewBox="0 0 209 96" fill="none"><path d="M204.411 6.35887C201.292 2.57302 196.146 0.658081 189.121 0.658081H130.494C122.355 0.658081 116.6 2.72709 113.392 6.79908C110.266 10.761 108.684 15.6621 108.684 21.3702V27.4378C108.877 27.4672 109.063 27.5039 109.249 27.5406C109.613 27.6139 109.976 27.702 110.348 27.7974H111.558V21.3702C111.558 16.3077 112.939 12.001 115.657 8.54527C118.293 5.19964 123.276 3.50481 130.487 3.50481H189.114C195.232 3.50481 199.629 5.06757 202.176 8.15641C204.789 11.326 206.119 15.7721 206.119 21.3702V71.9656C206.119 78.18 204.693 82.4061 201.871 84.5338C198.931 86.7495 194.638 87.8794 189.121 87.8794H133.256L111.848 92.3549C109.91 92.7071 108.372 92.3989 107.511 91.4892C106.62 90.5427 106.442 88.8479 106.999 86.7128L110.697 75.4066H109.516C108.811 75.4066 108.239 75.2452 107.793 75.0251L104.244 85.8764L104.221 85.9498C103.152 89.9558 104.273 92.2302 105.395 93.4261C106.583 94.6881 108.306 95.3411 110.363 95.3411C111.001 95.3411 111.677 95.275 112.382 95.1503L133.553 90.7261H189.114C195.277 90.7261 200.156 89.4055 203.609 86.8009C207.181 84.1082 208.993 79.1191 208.993 71.973V21.3702C208.993 15.0971 207.448 10.0493 204.403 6.35887H204.411Z" fill="white"></path><path d="M23.3542 45.7948H15.1784C14.77 45.7948 14.5026 45.8829 14.3838 46.0516C14.2576 46.2204 14.1982 46.5432 14.1982 47.0054V51.2975C14.1982 51.5396 14.1833 51.7817 14.1536 52.0239C14.1239 52.266 14.0497 52.4861 13.9383 52.6768C13.8269 52.8676 13.6635 53.0217 13.4482 53.1464C13.2328 53.2711 12.9432 53.3298 12.5719 53.3298C12.2675 53.3298 12.0076 53.2711 11.8071 53.1464C11.6066 53.0217 11.4432 52.8676 11.317 52.6768C11.1907 52.4861 11.1165 52.266 11.0719 52.0239C11.0274 51.7817 11.0125 51.5396 11.0125 51.2975V31.5759C11.0125 31.0916 11.1387 30.6587 11.3986 30.2772C11.6511 29.8957 12.0447 29.7049 12.5794 29.7049C12.8615 29.7049 13.1066 29.771 13.2997 29.903C13.4927 30.0351 13.6487 30.2039 13.7601 30.402C13.8715 30.6074 13.9457 30.8128 13.9903 31.0403C14.0274 31.2604 14.0497 31.4731 14.0497 31.6786V34.9435C14.0497 35.369 14.1239 35.6772 14.265 35.8826C14.4061 36.0881 14.6734 36.1834 15.0596 36.1834H23.2057C23.6513 36.1834 23.9483 36.0734 24.0968 35.8533C24.2379 35.6332 24.3122 35.2663 24.3122 34.7674V31.3484C24.3122 29.9544 24.0968 28.5824 23.6661 27.2177C23.2354 25.8604 22.5522 24.6351 21.6166 23.5566C20.6809 22.4781 19.4557 21.5976 17.9557 20.9227C16.4556 20.2477 14.6363 19.9102 12.4902 19.9102C10.6561 19.9102 8.9704 20.1963 7.44068 20.7539C5.91096 21.3188 4.59659 22.0966 3.49014 23.0944C2.39112 24.0922 1.52972 25.2734 0.920803 26.6308C0.311885 27.9954 0 29.4775 0 31.0916V51.9285C0 53.7407 0.334162 55.3548 1.00991 56.7562C1.68566 58.1575 2.59904 59.3314 3.75004 60.2779C4.90105 61.2244 6.23027 61.9434 7.74514 62.4276C9.25258 62.9118 10.8343 63.154 12.4902 63.154C14.1462 63.154 15.7279 62.9118 17.1908 62.4276C18.6463 61.9434 19.9235 61.2317 21.0002 60.2779C22.0844 59.3314 22.931 58.1575 23.5547 56.7562C24.1785 55.3548 24.3567 53.748 24.3567 51.9358V46.932C24.3567 46.4698 24.3567 46.2057 24.1934 46.0149C24.0523 45.8535 23.7849 45.7875 23.3542 45.7875V45.7948Z" fill="white"></path><path d="M46.9016 33.1753C45.8174 32.2949 44.5476 31.6199 43.0922 31.1356C41.6367 30.6587 40.0698 30.4166 38.399 30.4166C36.7282 30.4166 35.2356 30.6734 33.795 31.1943C32.3618 31.7153 31.1069 32.4269 30.0301 33.3367C28.9534 34.2465 28.1068 35.3104 27.4905 36.5356C26.8667 37.7609 26.5623 39.0742 26.5623 40.4829V52.8823C26.5623 54.4157 26.8741 55.8024 27.4905 57.0497C28.1068 58.2969 28.9608 59.3534 30.0301 60.2339C31.1069 61.1143 32.3618 61.7893 33.8099 62.2735C35.2579 62.7504 36.8025 62.9926 38.4584 62.9926C40.1144 62.9926 41.6664 62.7504 43.1219 62.2735C44.5773 61.7966 45.8471 61.1143 46.9313 60.2339C48.0155 59.3534 48.8694 58.2969 49.4858 57.0497C50.1021 55.8024 50.414 54.4157 50.414 52.8823V40.4829C50.414 38.9495 50.1021 37.5701 49.4709 36.3302C48.8397 35.0976 47.9858 34.0411 46.9016 33.1606V33.1753ZM39.8471 52.5888C39.8471 52.8529 39.7431 53.1391 39.5352 53.4472C39.3273 53.7554 38.9857 53.9094 38.5104 53.9094C38.0352 53.9094 37.6861 53.7627 37.4559 53.4619C37.2257 53.1684 37.1144 52.8749 37.1144 52.5888V40.7984C37.1144 40.5342 37.2257 40.2554 37.4411 39.9546C37.6564 39.6611 38.0129 39.5144 38.5104 39.5144C39.0079 39.5144 39.3273 39.6611 39.5352 39.9546C39.7431 40.2481 39.8471 40.5416 39.8471 40.8277V52.5888Z" fill="white"></path><path d="M67.3151 54.2029C67.2557 54.0709 67.1443 53.9535 67.0032 53.8581C66.8547 53.7627 66.6468 53.7187 66.372 53.7187H66.2161C65.5849 53.7187 65.0799 53.6673 64.6938 53.5646C64.3077 53.4619 63.9958 53.3078 63.7656 53.0951C63.5354 52.8896 63.3794 52.6255 63.2903 52.3173C63.2086 52.0092 63.1641 51.6423 63.1641 51.2315V21.2748C63.1641 20.5118 62.7779 20.1229 61.9982 20.1229H53.5996C52.805 20.1229 52.4041 20.5044 52.4041 21.2748V51.9505C52.4041 54.2543 52.6937 56.1252 53.2877 57.5779C53.8744 59.0306 54.6541 60.1678 55.6343 60.9969C56.6071 61.826 57.7432 62.3983 59.0353 62.7064C60.3274 63.0146 61.6641 63.176 63.0453 63.176H65.2804C65.8077 63.176 66.2161 63.1393 66.5057 63.0659C66.8027 62.9926 67.0181 62.9045 67.1666 62.8018C67.3151 62.6991 67.3968 62.5817 67.4191 62.4423C67.4414 62.3102 67.4488 62.1782 67.4488 62.0534V55.0907C67.4488 54.966 67.4488 54.8192 67.4339 54.6578C67.4191 54.4891 67.3894 54.3423 67.3225 54.2103L67.3151 54.2029Z" fill="white"></path><path d="M91.0555 49.2872C91.5084 49.2872 91.8797 49.1625 92.1619 48.9203C92.4441 48.6782 92.5778 48.3481 92.5778 47.9372V40.5122C92.5778 39.1182 92.303 37.8122 91.7535 36.587C91.204 35.3617 90.4317 34.2905 89.4366 33.3807C88.4416 32.471 87.2534 31.7519 85.8648 31.2164C84.4762 30.6881 82.9465 30.4166 81.2682 30.4166C79.59 30.4166 78.0974 30.6808 76.6568 31.2164C75.2162 31.7519 73.9612 32.471 72.8845 33.3807C71.8077 34.2905 70.9612 35.3617 70.3374 36.587C69.7136 37.8122 69.4092 39.1256 69.4092 40.5122V52.941C69.4092 54.3497 69.7211 55.6703 70.3374 56.9029C70.9612 58.1282 71.8077 59.1994 72.8845 60.1091C73.9612 61.0189 75.2162 61.7379 76.6568 62.2735C78.0974 62.8018 79.6345 63.0733 81.2682 63.0733C82.9019 63.0733 84.4688 62.8091 85.85 62.2735C87.2237 61.7453 88.4045 61.0189 89.3772 60.1091C90.35 59.1994 91.1075 58.1282 91.6421 56.9029C92.1768 55.6776 92.4515 54.357 92.4515 52.941V52.2953C92.4515 52.0312 92.3921 51.8331 92.2659 51.6937C92.1396 51.5616 91.9243 51.4956 91.6124 51.4956H83.9118C83.5405 51.4956 83.2955 51.591 83.1841 51.7744C83.0727 51.9578 83.0133 52.1046 83.0133 52.2073V52.8529C83.0133 53.095 82.9019 53.3885 82.6866 53.7113C82.4712 54.0415 82.0925 54.2029 81.5504 54.2029C81.0529 54.2029 80.6667 54.0562 80.3994 53.7554C80.1321 53.4619 79.9984 53.1758 79.9984 52.9116V49.2872H91.0555ZM80.0133 40.813C80.0133 40.5489 80.1469 40.2701 80.4143 39.9766C80.6816 39.6832 81.0603 39.5364 81.5578 39.5364C82.0554 39.5364 82.3895 39.6832 82.6346 39.9766C82.8796 40.2701 83.0059 40.5636 83.0059 40.8424V44.6943H80.0133V40.813Z" fill="white"></path><path d="M121.769 32.6544C121.865 31.2971 121.858 31.3558 121.665 31.121C121.494 30.9302 121.167 30.9669 120.818 30.9669L110.667 31.0256C109.308 30.6221 107.875 30.4166 106.375 30.4166C104.749 30.4166 103.219 30.6881 101.793 31.2237C100.36 31.7593 99.1125 32.5297 98.0432 33.5275C96.9739 34.5253 96.1273 35.7359 95.511 37.1593C94.8946 38.5826 94.5828 40.1747 94.5828 41.9503V43.9019C94.5828 45.5307 94.7981 46.9761 95.2288 48.2453C95.6595 49.5146 96.2684 50.6298 97.0481 51.5836C96.3872 52.5008 95.8377 53.5279 95.3996 54.6652C94.9541 55.8024 94.7387 56.9836 94.7387 58.2015V59.6689C94.7387 60.586 94.9095 61.4738 95.2511 62.3396C95.5927 63.2053 96.0531 63.9684 96.6397 64.6434C97.2264 65.311 97.9244 65.854 98.7412 66.2575C99.5506 66.661 100.419 66.8665 101.348 66.8665H101.875L108.261 66.9251C108.67 66.9251 108.974 67.0645 109.16 67.336C109.345 67.6075 109.434 67.989 109.434 68.4806V71.1365C109.434 71.342 109.494 71.5107 109.62 71.6575C109.746 71.7969 109.947 71.8702 110.236 71.8702H119.125C119.704 71.8702 119.987 71.5841 119.987 71.0191V65.3477C119.987 63.7189 119.749 62.4129 119.274 61.4298C118.798 60.4466 118.175 59.6836 117.41 59.1553C116.637 58.6271 115.754 58.2749 114.751 58.1062C113.756 57.9301 112.731 57.8494 111.677 57.8494H105.811C105.402 57.8494 105.046 57.7613 104.764 57.5926C104.474 57.4165 104.333 57.1304 104.333 56.7268V56.6021C104.333 56.1105 104.415 55.7363 104.578 55.4722C105.194 55.5309 105.811 55.5603 106.427 55.5603C108.075 55.5603 109.62 55.3108 111.076 54.8119C112.524 54.313 113.793 53.5719 114.87 52.5888C115.954 51.6057 116.801 50.3657 117.417 48.8837C118.034 47.4016 118.345 45.6701 118.345 43.6965V42.053C118.345 40.9524 118.234 39.8959 118.004 38.8834L119.288 38.1057C120.269 37.372 120.61 36.9318 120.959 36.3595C120.959 36.3595 121.642 35.325 121.754 32.6764L121.769 32.6544ZM107.83 45.1785C107.83 45.4426 107.726 45.7288 107.519 46.0296C107.311 46.3377 106.976 46.4845 106.501 46.4845C106.026 46.4845 105.677 46.3377 105.454 46.0443C105.224 45.7508 105.113 45.4573 105.113 45.1785V40.7543C105.113 40.4902 105.217 40.2114 105.439 39.9179C105.655 39.6245 106.011 39.4777 106.501 39.4777C106.991 39.4777 107.311 39.6245 107.519 39.9179C107.726 40.2114 107.83 40.5049 107.83 40.7837V45.1785Z" fill="white"></path><path d="M133.108 20.0642H126.811C125.987 20.0642 125.415 20.2696 125.096 20.6732C124.776 21.0767 124.62 21.5683 124.62 22.1552V27.6653C124.62 27.6653 124.62 27.6799 124.62 27.6873L124.138 29.184C123.974 29.8076 124.323 30.0864 124.836 29.9911L127.123 29.5068H133.101C133.732 29.5068 134.215 29.3748 134.564 29.1106C134.905 28.8465 135.083 28.3549 135.083 27.6286V22.1479C135.083 21.5022 134.927 20.9887 134.623 20.6218C134.318 20.2476 133.814 20.0642 133.101 20.0642H133.108Z" fill="white"></path><path d="M133.932 30.6294H125.541C125.244 30.6294 124.962 30.7174 124.702 30.9009C124.442 31.0843 124.316 31.3631 124.316 31.7446V62.0608C124.316 62.8018 124.724 63.176 125.541 63.176H133.932C134.341 63.176 134.675 63.0806 134.942 62.8898C135.209 62.6991 135.343 62.4276 135.343 62.0608V31.7446C135.343 31.4071 135.202 31.1356 134.905 30.9375C134.615 30.7394 134.289 30.6367 133.925 30.6367L133.932 30.6294Z" fill="white"></path><path d="M160.598 30.6294H152.014C151.301 30.6294 150.945 31.0256 150.945 31.8106V52.5668C150.9 52.919 150.774 53.2198 150.551 53.4692C150.329 53.7187 150.009 53.8434 149.593 53.8434C149.051 53.8434 148.68 53.682 148.494 53.3592C148.309 53.0364 148.212 52.7135 148.212 52.3834V31.818C148.212 31.0329 147.885 30.6367 147.239 30.6367H138.559C138.224 30.6367 137.957 30.7321 137.757 30.9302C137.556 31.1283 137.46 31.4218 137.46 31.818V52.6989C137.46 54.0268 137.742 55.3108 138.306 56.5507C138.871 57.7907 139.672 58.8986 140.712 59.8597C141.752 60.8208 142.984 61.5985 144.425 62.1928C145.858 62.7798 147.462 63.0806 149.222 63.0806C151.212 63.0806 152.987 62.8091 154.539 62.2735C156.091 61.7379 157.398 60.9969 158.452 60.0651C159.507 59.1333 160.316 58.0328 160.873 56.7708C161.43 55.5089 161.705 54.1589 161.705 52.7282V50.2703L161.326 50.329L161.705 50.2336V31.8106C161.705 31.4144 161.608 31.121 161.408 30.9229C161.207 30.7248 160.94 30.6294 160.606 30.6294H160.598Z" fill="white"></path><path d="M174.722 62.0534C174.722 62.4276 174.618 62.7064 174.41 62.8972C174.203 63.0806 173.95 63.176 173.653 63.176H164.98C164.668 63.176 164.415 63.0806 164.222 62.8972C164.029 62.7138 163.94 62.4276 163.94 62.0534V41.8842C164.022 39.5951 164.43 37.7242 165.158 36.2568C165.886 34.7894 166.814 33.6449 167.95 32.8158C169.086 31.9867 170.356 31.4144 171.752 31.099C173.148 30.7908 174.552 30.6294 175.962 30.6294H176.185C179.133 30.6294 181.317 31.5759 182.75 33.4688C184.287 31.5759 186.47 30.6294 189.314 30.6294H189.567C190.978 30.6294 192.359 30.7835 193.718 31.099C195.077 31.4071 196.287 31.9794 197.364 32.8158C198.433 33.6449 199.317 34.7968 200.015 36.2568C200.713 37.7242 201.091 39.5951 201.151 41.8842C201.173 41.9429 201.181 42.0383 201.181 42.163V62.0167C201.181 62.4129 201.084 62.7064 200.884 62.8898C200.683 63.0733 200.438 63.1686 200.141 63.1686H191.43C191.119 63.1686 190.866 63.0733 190.673 62.8898C190.48 62.7064 190.391 62.4129 190.391 62.0167V41.4734C190.391 41.0992 190.346 40.7617 190.25 40.4609C190.153 40.1601 189.878 39.9913 189.411 39.9473H189.099C188.594 39.9913 188.282 40.1674 188.156 40.4755C188.029 40.7837 187.963 41.1505 187.963 41.5687V62.0167C187.963 62.4129 187.866 62.7064 187.666 62.8898C187.465 63.0733 187.22 63.1686 186.923 63.1686H178.213C177.901 63.1686 177.648 63.0733 177.455 62.8898C177.262 62.7064 177.173 62.4129 177.173 62.0167V41.8842C177.128 40.5929 176.712 39.9546 175.91 39.9546C175.45 39.9766 175.138 40.138 174.982 40.4389C174.826 40.7397 174.745 41.1726 174.745 41.7302V62.0534H174.722Z" fill="white"></path></svg>